<svg width="16" height="13" viewBox="0 0 16 13" fill="none" xmlns="http://www.w3.org/2000/svg">
<path d="M14.25 0.599895C14.0781 0.488677 13.8815 0.421392 13.6775 0.403955C13.4735 0.386518 13.2683 0.419464 13.08 0.499895L6.91 2.92989C6.76407 2.98984 6.60776 3.02042 6.45 3.01989H2.5C2.16848 3.01989 1.85054 3.15159 1.61612 3.38601C1.3817 3.62043 1.25 3.93837 1.25 4.26989V4.36989H0V7.36989H1.25V7.49989C1.25783 7.82619 1.39298 8.13648 1.62656 8.36445C1.86013 8.59242 2.17361 8.71999 2.5 8.7199L4 11.8999C4.10157 12.114 4.26148 12.2952 4.46136 12.4225C4.66124 12.5499 4.893 12.6183 5.13 12.6199H5.76C6.08979 12.6173 6.40516 12.4844 6.63743 12.2503C6.86969 12.0161 7.00001 11.6997 7 11.3699V8.8399L13.08 11.2699C13.2297 11.3287 13.3891 11.3592 13.55 11.3599C13.7996 11.3553 14.0426 11.2789 14.25 11.1399C14.4145 11.0288 14.5501 10.8802 14.6458 10.7063C14.7414 10.5324 14.7943 10.3383 14.8 10.1399V1.62989C14.7991 1.42641 14.7485 1.22623 14.6527 1.04673C14.5568 0.86723 14.4186 0.713845 14.25 0.599895ZM5.75 4.26989V7.49989H2.5V4.26989H5.75ZM5.75 11.3699H5.12L3.89 8.7199H5.75V11.3699ZM7.37 7.64989C7.25125 7.58926 7.12745 7.53908 7 7.49989V4.19989C7.1262 4.17366 7.24997 4.13686 7.37 4.08989L13.55 1.62989V10.1099L7.37 7.64989ZM14.83 4.61989V7.11989C15.1615 7.11989 15.4795 6.9882 15.7139 6.75378C15.9483 6.51936 16.08 6.20142 16.08 5.86989C16.08 5.53837 15.9483 5.22043 15.7139 4.98601C15.4795 4.75159 15.1615 4.61989 14.83 4.61989Z" fill="#98A2B3"/>
</svg>
