<svg width="13" height="13" viewBox="0 0 13 13" fill="none" xmlns="http://www.w3.org/2000/svg">
<path fill-rule="evenodd" clip-rule="evenodd" d="M12.2496 6.65796C12.2496 9.97167 9.56334 12.658 6.24963 12.658C2.93593 12.658 0.249634 9.97167 0.249634 6.65796C0.249634 3.34425 2.93593 0.657959 6.24963 0.657959C9.56334 0.657959 12.2496 3.34425 12.2496 6.65796ZM6.24963 2.65796C6.61782 2.65796 6.9163 2.95644 6.9163 3.32463V7.99129C6.9163 8.35948 6.61782 8.65796 6.24963 8.65796C5.88144 8.65796 5.58297 8.35948 5.58297 7.99129L5.58297 3.32463C5.58297 2.95644 5.88144 2.65796 6.24963 2.65796ZM5.4163 9.82463C5.4163 10.2849 5.7894 10.658 6.24963 10.658C6.70987 10.658 7.08297 10.2849 7.08297 9.82463C7.08297 9.36439 6.70987 8.99129 6.24963 8.99129C5.7894 8.99129 5.4163 9.36439 5.4163 9.82463Z" fill="#F56630"/>
</svg>
