<svg width="20" height="18" viewBox="0 0 20 18" fill="none" xmlns="http://www.w3.org/2000/svg">
<path fill-rule="evenodd" clip-rule="evenodd" d="M11.6666 5.22507V4.41663C11.6666 3.22747 10.9107 2.27004 9.93822 1.65118C8.95584 1.02603 7.64958 0.666626 6.24992 0.666626C4.85026 0.666626 3.544 1.02603 2.56162 1.65118C1.58912 2.27004 0.833252 3.22747 0.833252 4.41663V13.5833C0.833252 14.7724 1.58912 15.7299 2.56162 16.3487C3.544 16.9739 4.85026 17.3333 6.24992 17.3333C7.64958 17.3333 8.95584 16.9739 9.93822 16.3487C10.3812 16.0668 10.7793 15.7146 11.0814 15.3023C11.3221 15.7992 11.7173 16.2136 12.174 16.5245C12.9328 17.0408 13.9344 17.3333 14.9999 17.3333C16.0655 17.3333 17.0671 17.0408 17.8258 16.5245C18.5802 16.0111 19.1666 15.2152 19.1666 14.2314V7.10181C19.1666 6.11806 18.5802 5.32219 17.8258 4.8088C17.0671 4.29245 16.0655 3.99996 14.9999 3.99996C13.9344 3.99996 12.9328 4.29245 12.174 4.8088C11.9933 4.93178 11.8223 5.07097 11.6666 5.22507ZM2.49992 4.41663C2.49992 3.99495 2.77006 3.49405 3.45641 3.05728C4.13287 2.62681 5.11827 2.33329 6.24992 2.33329C7.38156 2.33329 8.36697 2.62681 9.04343 3.05728C9.72977 3.49405 9.99992 3.99495 9.99992 4.41663C9.99992 4.8383 9.72977 5.3392 9.04343 5.77597C8.36697 6.20644 7.38156 6.49996 6.24992 6.49996C5.11827 6.49996 4.13287 6.20644 3.45641 5.77597C2.77006 5.3392 2.49992 4.8383 2.49992 4.41663ZM9.93822 7.18207C9.95889 7.16892 9.97945 7.15562 9.99992 7.14216V7.74996C9.99992 8.17164 9.72977 8.67254 9.04343 9.1093C8.36697 9.53978 7.38156 9.83329 6.24992 9.83329C5.11827 9.83329 4.13287 9.53978 3.45641 9.1093C2.77006 8.67254 2.49992 8.17164 2.49992 7.74996V7.14216C2.52038 7.15562 2.54095 7.16892 2.56162 7.18207C3.544 7.80722 4.85026 8.16663 6.24992 8.16663C7.64958 8.16663 8.95584 7.80722 9.93822 7.18207ZM9.93822 10.5154C9.95889 10.5023 9.97945 10.489 9.99992 10.4755V11.0833C9.99992 11.505 9.72977 12.0059 9.04343 12.4426C8.36697 12.8731 7.38156 13.1666 6.24992 13.1666C5.11827 13.1666 4.13287 12.8731 3.45641 12.4426C2.77006 12.0059 2.49992 11.505 2.49992 11.0833V10.4755C2.52038 10.489 2.54095 10.5023 2.56162 10.5154C3.544 11.1406 4.85026 11.5 6.24992 11.5C7.64958 11.5 8.95584 11.1406 9.93822 10.5154ZM9.93822 13.8487L9.97042 13.8281C9.88389 14.1907 9.60099 14.5878 9.04343 14.9426C8.36697 15.3731 7.38156 15.6666 6.24992 15.6666C5.11827 15.6666 4.13287 15.3731 3.45641 14.9426C2.89884 14.5878 2.61595 14.1907 2.52942 13.8281L2.56162 13.8487C3.544 14.4739 4.85026 14.8333 6.24992 14.8333C7.64958 14.8333 8.95584 14.4739 9.93822 13.8487ZM12.4999 7.10181C12.4999 6.8327 12.6597 6.49431 13.1117 6.18665C13.5595 5.88196 14.2245 5.66663 14.9999 5.66663C15.7753 5.66663 16.4404 5.88196 16.8881 6.18665C17.3401 6.49431 17.4999 6.8327 17.4999 7.10181C17.4999 7.37093 17.3401 7.70932 16.8881 8.01697C16.4404 8.32166 15.7753 8.537 14.9999 8.537C14.2245 8.537 13.5595 8.32166 13.1117 8.01697C12.6597 7.70932 12.4999 7.37093 12.4999 7.10181ZM14.9999 10.2037C15.9191 10.2037 16.7908 9.986 17.4999 9.59472V9.6944C17.4999 9.96352 17.3401 10.3019 16.8881 10.6096C16.4404 10.9143 15.7753 11.1296 14.9999 11.1296C14.2245 11.1296 13.5595 10.9143 13.1117 10.6096C12.6597 10.3019 12.4999 9.96352 12.4999 9.6944V9.59472C13.2091 9.986 14.0807 10.2037 14.9999 10.2037ZM14.9999 12.7963C15.9191 12.7963 16.7908 12.5786 17.4999 12.1873V12.287C17.4999 12.5561 17.3401 12.8945 16.8881 13.2022C16.4404 13.5068 15.7753 13.7222 14.9999 13.7222C14.2245 13.7222 13.5595 13.5068 13.1117 13.2022C12.6597 12.8945 12.4999 12.5561 12.4999 12.287V12.1873C13.2091 12.5786 14.0807 12.7963 14.9999 12.7963ZM14.9999 15.3889C15.7591 15.3889 16.4859 15.2404 17.1154 14.9682C17.0496 15.0283 16.9742 15.088 16.8881 15.1466C16.4404 15.4513 15.7753 15.6666 14.9999 15.6666C14.2245 15.6666 13.5595 15.4513 13.1117 15.1466C13.0257 15.088 12.9502 15.0283 12.8844 14.9682C13.514 15.2404 14.2407 15.3889 14.9999 15.3889Z" fill="#98A2B3"/>
</svg>
